<svg width="32" height="32" viewBox="0 0 32 32" fill="none" xmlns="http://www.w3.org/2000/svg">
<g clip-path="url(#clip0_938_6111)">
<path d="M14.7015 9.8601L14.5845 5.41591C13.1558 5.35647 12.1536 3.90835 11.9158 2.48022C11.6548 0.913662 9.9522 -0.31715 8.16689 1.23035C6.38101 2.77785 2.03627 5.81297 0.429203 6.22954C-1.17773 6.64616 2.15508 7.77704 3.40539 7.30104C1.99627 8.57029 4.0797 9.58191 5.9542 8.60004C5.32958 9.73091 7.97827 10.0584 9.52526 8.74916C11.311 7.61823 13.6797 8.92747 14.7015 9.8601Z" fill="white"/>
<path d="M31.5708 6.22961C29.9638 5.81305 25.6194 2.77793 23.8338 1.23036C22.0484 -0.317137 20.3453 0.913613 20.0843 2.48024C19.8465 3.90836 18.8443 5.35649 17.4166 5.41593L17.2991 9.86011C18.3209 8.92755 20.6899 7.6183 22.4753 8.74918C24.0223 10.0584 26.671 9.73099 26.0459 8.60005C27.9204 9.58193 30.0038 8.5703 28.5952 7.30105C29.8449 7.77711 33.1778 6.64624 31.5708 6.22961Z" fill="white"/>
<path d="M16 5.0889C17.266 5.0889 18.2924 4.06254 18.2924 2.79647C18.2924 1.53039 17.266 0.504028 16 0.504028C14.7339 0.504028 13.7075 1.53039 13.7075 2.79647C13.7075 4.06254 14.7339 5.0889 16 5.0889Z" fill="white"/>
<path d="M12.7573 14.7841C13.3573 14.6281 13.9816 14.4693 14.5821 14.316C13.381 14.0197 12.5163 13.8502 12.0662 13.1572C11.905 12.9088 11.9157 12.6338 11.9789 12.4513C12.1089 12.0806 12.4842 11.9195 13.5664 11.5572C14.2091 11.3426 14.5398 10.9883 14.4734 10.5837C14.426 10.2953 14.4051 10.1151 13.9314 10.044C13.6587 10.0041 13.3545 9.89589 13.0373 9.73983C12.6644 9.55733 12.2966 9.61533 11.8944 9.61533C11.8363 9.61533 11.7755 9.62045 11.7146 9.62883C10.8814 9.75845 10.2651 10.221 9.92932 10.7235C9.22851 11.7764 8.97395 13.4614 10.5693 14.7497C10.8364 14.9666 11.1541 15.1436 11.5057 15.2973C11.8628 15.0777 12.278 14.9058 12.7573 14.7841Z" fill="white"/>
<path d="M16.4497 28.3642C17.0103 29.0544 17.2058 29.713 17.0153 30.1654C16.9838 30.2634 17.1324 30.3479 17.1826 30.2397C17.2086 30.2239 17.2513 30.1574 17.4148 29.7817C17.7882 28.9355 17.7195 28.2189 17.4335 27.6179C17.034 27.8669 16.7088 28.1209 16.4497 28.3642Z" fill="white"/>
<path d="M20.3694 16.0725C19.6951 16.3289 18.9492 16.5142 18.2163 16.6963C17.9943 16.752 17.7751 16.8078 17.5549 16.863C17.4918 16.8793 17.4258 16.8974 17.3617 16.9136C17.5893 16.974 17.8089 17.0325 18.0179 17.0883C18.8116 17.2996 19.473 17.7863 19.0764 18.9846C18.8804 19.5772 18.3249 19.8656 17.1926 20.2251C17.005 20.2836 16.8016 20.3468 16.5819 20.4127C16.3938 20.4656 16.1959 20.5242 15.9837 20.5873C15.9837 20.5873 15.9837 20.5873 15.9813 20.5873C15.8039 20.6379 15.6191 20.6909 15.4258 20.7461C15.3013 20.7833 15.1718 20.82 15.0394 20.8599C14.5053 21.0183 14.0608 21.2408 13.7009 21.5106C13.4919 21.6638 13.3098 21.8361 13.1561 22.0209C12.6671 22.6057 12.4367 23.3116 12.4209 24.0445C12.3968 25.0259 12.9865 26.063 13.9498 26.5176C14.0715 26.5762 14.1904 26.637 14.3065 26.6978C14.5684 26.3537 14.9149 26.0099 15.3622 25.6686C15.3515 25.6635 15.3413 25.6556 15.3301 25.6505L15.1689 25.5576C14.6641 25.2585 14.1773 24.8219 14.0873 24.3645C14.0055 23.9548 13.9656 23.3646 15.0449 22.7961C15.1666 22.7324 15.3041 22.6665 15.4574 22.6056C15.5605 22.5606 15.6743 22.5156 15.7936 22.4733C15.8568 22.4496 15.9176 22.4282 15.9813 22.4073C16.1745 22.3358 16.3649 22.267 16.5498 22.1983C17.1712 21.9656 17.7429 21.7408 18.2613 21.5104C18.5046 21.4018 18.7345 21.2935 18.9519 21.1825C20.4567 20.4259 21.3456 19.5951 21.3456 18.4339C21.3456 17.3604 21.0201 16.5881 20.3694 16.0725Z" fill="white"/>
<path d="M16.4441 28.3722C16.4441 28.3694 16.4468 28.3666 16.4497 28.3643C16.4497 28.3616 16.4468 28.3588 16.4441 28.3564V28.3722Z" fill="white"/>
<path d="M16.9178 22.7962C17.9972 23.3674 17.9545 23.9549 17.8755 24.3646C17.7854 24.8221 17.2986 25.2587 16.7933 25.5577L16.6294 25.6506C16.6188 25.6557 16.6085 25.6636 16.5973 25.6687C16.5635 25.6901 16.5263 25.711 16.4892 25.7347C16.3308 25.8276 16.1562 25.9363 15.9815 26.0602C15.8283 26.1634 15.6745 26.2799 15.5236 26.4067C15.2988 26.5944 15.0847 26.8034 14.8971 27.0393C14.7541 27.2191 14.6296 27.4118 14.5321 27.618C14.2437 28.2162 14.175 28.9356 14.5456 29.7818C14.7118 30.1576 14.7542 30.2239 14.7806 30.2397C14.8308 30.3479 14.9789 30.2634 14.9468 30.1654C14.7569 29.7131 14.9501 29.0545 15.5107 28.3667C15.5265 28.3802 15.5423 28.3932 15.5581 28.4094L15.5553 28.3114C15.6798 28.1633 15.8228 28.0123 15.9817 27.8642C16.127 27.7267 16.2859 27.592 16.4605 27.4597C16.6453 27.3171 16.8465 27.1769 17.0633 27.0394C17.2487 26.9228 17.4447 26.809 17.6537 26.698C17.7698 26.6372 17.8887 26.5764 18.0132 26.5178C18.9736 26.0632 19.5653 25.0261 19.542 24.0447C19.5235 23.3118 19.2959 22.6059 18.8064 22.0211C18.2294 22.2886 17.595 22.5426 16.9178 22.7962Z" fill="white"/>
<path d="M20.2479 9.62884C20.1875 9.62047 20.1263 9.61534 20.0659 9.61534C19.6636 9.61534 19.2959 9.55728 18.9253 9.73984C18.608 9.89591 18.3038 10.0041 18.0316 10.044C17.5579 10.1152 17.5343 10.2953 17.4891 10.5837C17.4232 10.9882 17.7539 11.3426 18.3966 11.5572C19.4784 11.9195 19.8541 12.0807 19.9832 12.4513C20.0473 12.6338 20.0575 12.9088 19.8959 13.1572C19.444 13.8502 18.5788 14.0197 17.3781 14.316C17.3359 14.3267 17.2908 14.3369 17.2486 14.3476C17.0768 14.3898 16.8886 14.4377 16.6847 14.4907C16.4655 14.5459 16.2305 14.6039 15.9816 14.6675L15.323 14.8343C14.5558 15.0298 13.7225 15.2444 12.9288 15.4478C12.7389 15.498 12.5587 15.5537 12.3896 15.6225C12.3896 15.6225 12.3896 15.6225 12.3868 15.6225C12.0849 15.7418 11.8178 15.8923 11.593 16.0725C10.9423 16.588 10.6172 17.3603 10.6172 18.4342C10.6172 19.5953 11.5057 20.4262 13.0109 21.185C13.4791 20.7675 14.0718 20.4396 14.7698 20.225C13.6379 19.8655 13.0825 19.5772 12.8837 18.9845C12.4871 17.7862 13.1484 17.2995 13.9418 17.0882C14.1507 17.0325 14.3732 16.9739 14.6008 16.9136C14.8441 16.8523 15.0954 16.7863 15.3546 16.7203C15.5608 16.6674 15.7698 16.6145 15.9815 16.5587C16.2035 16.5035 16.4255 16.4449 16.6508 16.3869C16.8937 16.3265 17.137 16.2628 17.3804 16.1992C18.1133 16.0088 18.8749 15.8393 19.5707 15.6224H19.5735C19.8828 15.5249 20.1819 15.419 20.4569 15.2973C20.8089 15.1436 21.1261 14.9666 21.3932 14.7497C22.9886 13.4613 22.7344 11.7763 22.0332 10.7235C21.6979 10.221 21.0788 9.75847 20.2479 9.62884Z" fill="white"/>
<path d="M15.5793 29.6393V29.6421L15.5849 29.9091L15.5923 30.4511L15.6109 31.4961H16.3889L16.4051 30.5384L16.4442 28.3723C16.2565 28.5469 16.1033 28.7188 15.9815 28.8804C15.7512 29.1813 15.6243 29.446 15.5793 29.6393Z" fill="white"/>
<path d="M15.9786 25.24C16.0766 25.1797 16.1796 25.116 16.2856 25.0552L16.4467 24.9623C16.4653 24.952 16.4839 24.9414 16.5025 24.9279L16.529 23.3674L16.5368 22.9364C16.3696 22.9973 16.1983 23.0609 16.026 23.1213C16.0102 23.1268 15.9944 23.132 15.9813 23.1375C15.7803 23.2114 15.6107 23.2801 15.4705 23.3488L15.4974 24.9493L15.5076 25.56C15.6535 25.4518 15.8095 25.346 15.9786 25.24Z" fill="white"/>
<path d="M15.7617 19.9343C15.8383 19.9129 15.9098 19.8916 15.9814 19.8708C16.2034 19.8043 16.4072 19.7439 16.5949 19.6883L16.6316 17.4371L16.64 17.1013C16.4969 17.1384 16.3567 17.1728 16.2164 17.21C16.1374 17.2309 16.0581 17.2495 15.9814 17.2704C15.7724 17.3233 15.569 17.3763 15.3674 17.4264L15.4074 19.7012L15.4129 20.0347C15.5318 20.0003 15.6479 19.9659 15.7617 19.9343Z" fill="white"/>
<path d="M15.1377 5.50092L15.3044 13.787L15.3095 14.1279C15.5422 14.0698 15.767 14.0117 15.9816 13.956C16.2379 13.8929 16.4785 13.8315 16.6983 13.7762L16.8649 5.50085C16.5873 5.57523 16.2988 5.61742 16.0002 5.61742C15.7011 5.61748 15.4131 5.57529 15.1377 5.50092Z" fill="white"/>
</g>
<defs>
<clipPath id="clip0_938_6111">
<rect width="32" height="32" fill="white"/>
</clipPath>
</defs>
</svg>
