<svg width="24" height="23" viewBox="0 0 24 23" fill="none" xmlns="http://www.w3.org/2000/svg">
<path d="M23.1955 11.3712C23.1955 17.6513 18.1044 22.7424 11.8243 22.7424C5.54418 22.7424 0.453125 17.6513 0.453125 11.3712C0.453125 5.09105 5.54418 0 11.8243 0C18.1044 0 23.1955 5.09105 23.1955 11.3712Z" fill="url(#paint0_linear_96_1356)"/>
<path d="M10.0049 14.7825V22.5149C10.0049 22.6405 10.1067 22.7424 10.2323 22.7424H13.4163C13.5419 22.7424 13.6437 22.6405 13.6437 22.5149V14.7825C13.6437 14.6569 13.7455 14.5551 13.8711 14.5551H16.1454C16.271 14.5551 16.3728 14.4533 16.3728 14.3277V11.5986C16.3728 11.473 16.271 11.3712 16.1454 11.3712H13.8711C13.7455 11.3712 13.6437 11.2695 13.6437 11.1439V9.09694C13.6437 8.18725 14.7808 7.7324 15.2357 7.7324H16.6002C16.7258 7.7324 16.8276 7.63058 16.8276 7.50498V4.7759C16.8276 4.65029 16.7258 4.54847 16.6002 4.54847H13.6437C11.4604 4.54847 10.0049 6.82271 10.0049 8.18725V11.1438C10.0049 11.2694 9.90309 11.3712 9.77749 11.3712H7.50326C7.37765 11.3712 7.27583 11.473 7.27583 11.5986V14.3277C7.27583 14.4533 7.37765 14.5551 7.50326 14.5551H9.77749C9.90309 14.5551 10.0049 14.6569 10.0049 14.7825Z" fill="#014343"/>
<defs>
<linearGradient id="paint0_linear_96_1356" x1="11.8243" y1="0" x2="11.8243" y2="22.7424" gradientUnits="userSpaceOnUse">
<stop stop-color="white"/>
<stop offset="1" stop-color="white"/>
</linearGradient>
</defs>
</svg>
