<svg width="41" height="40" viewBox="0 0 41 40" fill="none" xmlns="http://www.w3.org/2000/svg">
<path d="M34.4166 11.25H21.0823L16.7479 8C16.316 7.67609 15.7909 7.50068 15.251 7.5H6.91663C6.25358 7.5 5.6177 7.76339 5.14886 8.23223C4.68002 8.70107 4.41663 9.33696 4.41663 10V31.25C4.41663 31.913 4.68002 32.5489 5.14886 33.0178C5.6177 33.4866 6.25358 33.75 6.91663 33.75H34.4166C35.0797 33.75 35.7156 33.4866 36.1844 33.0178C36.6532 32.5489 36.9166 31.913 36.9166 31.25V13.75C36.9166 13.087 36.6532 12.4511 36.1844 11.9822C35.7156 11.5134 35.0797 11.25 34.4166 11.25ZM6.91663 15V10H15.251L18.5838 12.5L15.2494 15H6.91663ZM24.4166 25H21.9166V27.5C21.9166 27.8315 21.7849 28.1495 21.5505 28.3839C21.3161 28.6183 20.9981 28.75 20.6666 28.75C20.3351 28.75 20.0172 28.6183 19.7827 28.3839C19.5483 28.1495 19.4166 27.8315 19.4166 27.5V25H16.9166C16.5851 25 16.2672 24.8683 16.0327 24.6339C15.7983 24.3995 15.6666 24.0815 15.6666 23.75C15.6666 23.4185 15.7983 23.1005 16.0327 22.8661C16.2672 22.6317 16.5851 22.5 16.9166 22.5H19.4166V20C19.4166 19.6685 19.5483 19.3505 19.7827 19.1161C20.0172 18.8817 20.3351 18.75 20.6666 18.75C20.9981 18.75 21.3161 18.8817 21.5505 19.1161C21.7849 19.3505 21.9166 19.6685 21.9166 20V22.5H24.4166C24.7481 22.5 25.0661 22.6317 25.3005 22.8661C25.5349 23.1005 25.6666 23.4185 25.6666 23.75C25.6666 24.0815 25.5349 24.3995 25.3005 24.6339C25.0661 24.8683 24.7481 25 24.4166 25Z" fill="white"/>
</svg>
