<svg width="186" height="28" viewBox="0 0 186 28" fill="none" xmlns="http://www.w3.org/2000/svg">
<path d="M1.36435 20.5V7.40909H4.1321V12.8104H9.75071V7.40909H12.5121V20.5H9.75071V15.0923H4.1321V20.5H1.36435ZM17.5618 7.40909V20.5H14.794V7.40909H17.5618ZM19.839 20.5V7.40909H25.0037C25.9966 7.40909 26.8425 7.59872 27.5414 7.97798C28.2402 8.35298 28.7729 8.875 29.1394 9.54403C29.5101 10.2088 29.6955 10.9759 29.6955 11.8452C29.6955 12.7145 29.508 13.4815 29.133 14.1463C28.758 14.8111 28.2147 15.3288 27.503 15.6996C26.7956 16.0703 25.9391 16.2557 24.9334 16.2557H21.6415V14.0376H24.486C25.0186 14.0376 25.4576 13.946 25.8027 13.7628C26.1522 13.5753 26.4121 13.3175 26.5826 12.9893C26.7573 12.657 26.8446 12.2756 26.8446 11.8452C26.8446 11.4105 26.7573 11.0312 26.5826 10.7074C26.4121 10.3793 26.1522 10.1257 25.8027 9.94673C25.4533 9.76349 25.0101 9.67188 24.4732 9.67188H22.6067V20.5H19.839ZM32.2379 20.5H29.272L33.7912 7.40909H37.358L41.8707 20.5H38.9048L35.6257 10.4006H35.5234L32.2379 20.5ZM32.0526 15.3544H39.0582V17.5149H32.0526V15.3544ZM45.7028 20.5H42.7369L47.256 7.40909H50.8228L55.3356 20.5H52.3697L49.0906 10.4006H48.9883L45.7028 20.5ZM45.5174 15.3544H52.5231V17.5149H45.5174V15.3544Z" fill="white"/>
<rect x="64" y="4" width="20" height="20" rx="10" fill="white"/>
<path d="M78 12L72.8536 17.1464C72.6583 17.3417 72.3417 17.3417 72.1464 17.1464L70 15" stroke="#00AAAA" stroke-width="1.67" stroke-linecap="round"/>
<path d="M102.773 12H101.364C101.28 11.5947 101.134 11.2386 100.926 10.9318C100.722 10.625 100.472 10.3674 100.176 10.1591C99.8845 9.94697 99.5606 9.78788 99.2045 9.68182C98.8485 9.57576 98.4773 9.52273 98.0909 9.52273C97.3864 9.52273 96.7481 9.70076 96.1761 10.0568C95.608 10.4129 95.1553 10.9375 94.8182 11.6307C94.4848 12.3239 94.3182 13.1742 94.3182 14.1818C94.3182 15.1894 94.4848 16.0398 94.8182 16.733C95.1553 17.4261 95.608 17.9508 96.1761 18.3068C96.7481 18.6629 97.3864 18.8409 98.0909 18.8409C98.4773 18.8409 98.8485 18.7879 99.2045 18.6818C99.5606 18.5758 99.8845 18.4186 100.176 18.2102C100.472 17.9981 100.722 17.7386 100.926 17.4318C101.134 17.1212 101.28 16.7652 101.364 16.3636H102.773C102.667 16.9583 102.473 17.4905 102.193 17.9602C101.913 18.4299 101.564 18.8295 101.148 19.1591C100.731 19.4848 100.263 19.733 99.7443 19.9034C99.2292 20.0739 98.678 20.1591 98.0909 20.1591C97.0985 20.1591 96.2159 19.9167 95.4432 19.4318C94.6705 18.947 94.0625 18.2576 93.6193 17.3636C93.1761 16.4697 92.9545 15.4091 92.9545 14.1818C92.9545 12.9545 93.1761 11.8939 93.6193 11C94.0625 10.1061 94.6705 9.41667 95.4432 8.93182C96.2159 8.44697 97.0985 8.20455 98.0909 8.20455C98.678 8.20455 99.2292 8.28977 99.7443 8.46023C100.263 8.63068 100.731 8.88068 101.148 9.21023C101.564 9.53598 101.913 9.93371 102.193 10.4034C102.473 10.8693 102.667 11.4015 102.773 12ZM114.768 14.1818C114.768 15.4091 114.546 16.4697 114.103 17.3636C113.66 18.2576 113.052 18.947 112.279 19.4318C111.507 19.9167 110.624 20.1591 109.632 20.1591C108.639 20.1591 107.757 19.9167 106.984 19.4318C106.211 18.947 105.603 18.2576 105.16 17.3636C104.717 16.4697 104.495 15.4091 104.495 14.1818C104.495 12.9545 104.717 11.8939 105.16 11C105.603 10.1061 106.211 9.41667 106.984 8.93182C107.757 8.44697 108.639 8.20455 109.632 8.20455C110.624 8.20455 111.507 8.44697 112.279 8.93182C113.052 9.41667 113.66 10.1061 114.103 11C114.546 11.8939 114.768 12.9545 114.768 14.1818ZM113.404 14.1818C113.404 13.1742 113.236 12.3239 112.899 11.6307C112.565 10.9375 112.113 10.4129 111.541 10.0568C110.972 9.70076 110.336 9.52273 109.632 9.52273C108.927 9.52273 108.289 9.70076 107.717 10.0568C107.149 10.4129 106.696 10.9375 106.359 11.6307C106.025 12.3239 105.859 13.1742 105.859 14.1818C105.859 15.1894 106.025 16.0398 106.359 16.733C106.696 17.4261 107.149 17.9508 107.717 18.3068C108.289 18.6629 108.927 18.8409 109.632 18.8409C110.336 18.8409 110.972 18.6629 111.541 18.3068C112.113 17.9508 112.565 17.4261 112.899 16.733C113.236 16.0398 113.404 15.1894 113.404 14.1818ZM117.037 8.36364H118.719L122.674 18.0227H122.81L126.764 8.36364H128.446V20H127.128V11.1591H127.014L123.378 20H122.105L118.469 11.1591H118.355V20H117.037V8.36364ZM131.172 20V8.36364H135.103C136.016 8.36364 136.763 8.52841 137.342 8.85795C137.925 9.18371 138.357 9.625 138.638 10.1818C138.918 10.7386 139.058 11.3598 139.058 12.0455C139.058 12.7311 138.918 13.3542 138.638 13.9148C138.361 14.4754 137.933 14.9223 137.353 15.2557C136.774 15.5852 136.031 15.75 135.126 15.75H132.308V14.5H135.081C135.706 14.5 136.208 14.392 136.586 14.1761C136.965 13.9602 137.24 13.6686 137.41 13.3011C137.584 12.9299 137.672 12.5114 137.672 12.0455C137.672 11.5795 137.584 11.1629 137.41 10.7955C137.24 10.428 136.963 10.1402 136.581 9.93182C136.198 9.7197 135.691 9.61364 135.058 9.61364H132.581V20H131.172ZM141.228 20V8.36364H142.637V18.75H148.046V20H141.228ZM151.537 8.36364V20H150.128V8.36364H151.537ZM154.739 20H153.262L157.535 8.36364H158.989L163.262 20H161.785L158.308 10.2045H158.217L154.739 20ZM155.285 15.4545H161.239V16.7045H155.285V15.4545ZM174.202 8.36364V20H172.838L166.497 10.8636H166.384V20H164.975V8.36364H166.338L172.702 17.5227H172.816V8.36364H174.202ZM176.285 9.61364V8.36364H185.012V9.61364H181.353V20H179.944V9.61364H176.285Z" fill="white"/>
</svg>
