<svg width="24" height="24" viewBox="0 0 24 24" fill="none" xmlns="http://www.w3.org/2000/svg">
<g clip-path="url(#clip0_96_1358)">
<path d="M16.8508 0H7.15022C3.20784 0 0.000488281 3.20735 0.000488281 7.14973V16.8503C0.000488281 20.7926 3.20784 24 7.15022 24H16.8508C20.7931 24 24.0005 20.7926 24.0005 16.8503V7.14973C24.0004 3.20735 20.7931 0 16.8508 0ZM21.5861 16.8503C21.5861 19.4655 19.466 21.5856 16.8508 21.5856H7.15022C4.53499 21.5856 2.41489 19.4655 2.41489 16.8503V7.14973C2.41489 4.53446 4.53499 2.4144 7.15022 2.4144H16.8508C19.466 2.4144 21.5861 4.53446 21.5861 7.14973V16.8503Z" fill="white"/>
<path d="M12.0002 5.79297C8.57754 5.79297 5.79297 8.57754 5.79297 12.0002C5.79297 15.4228 8.57754 18.2074 12.0002 18.2074C15.4229 18.2074 18.2075 15.4229 18.2075 12.0002C18.2075 8.57749 15.4229 5.79297 12.0002 5.79297ZM12.0002 15.7931C9.90547 15.7931 8.20737 14.095 8.20737 12.0002C8.20737 9.90547 9.90551 8.20737 12.0002 8.20737C14.095 8.20737 15.7931 9.90547 15.7931 12.0002C15.7931 14.0949 14.0949 15.7931 12.0002 15.7931Z" fill="white"/>
<path d="M18.2198 7.32673C19.0412 7.32673 19.7071 6.66083 19.7071 5.83939C19.7071 5.01796 19.0412 4.35205 18.2198 4.35205C17.3983 4.35205 16.7324 5.01796 16.7324 5.83939C16.7324 6.66083 17.3983 7.32673 18.2198 7.32673Z" fill="white"/>
</g>
<defs>
<clipPath id="clip0_96_1358">
<rect width="24" height="24" fill="white" transform="translate(0.000488281)"/>
</clipPath>
</defs>
</svg>
