<svg width="168" height="28" viewBox="0 0 168 28" fill="none" xmlns="http://www.w3.org/2000/svg">
<g clip-path="url(#clip0_343_6065)">
<path fill-rule="evenodd" clip-rule="evenodd" d="M0 0H14C21.732 0 28 6.26802 28 14C28 21.732 21.732 28 14 28H0V0ZM5.32 10.64H7.56V17.36H5.32V10.64ZM12.6 8.4H10.36V19.6H12.6V8.4ZM15.4 6.16H17.64V21.84H15.4V6.16ZM22.68 11.76H20.44V16.24H22.68V11.76Z" fill="#00AAAA"/>
<path d="M132.15 24.1122V9.56728H136.133V24.1122H132.15Z" fill="#111111"/>
<path d="M134.169 7.37863C133.395 7.37863 132.795 7.22164 132.371 6.90765C131.965 6.5752 131.762 6.09499 131.762 5.46702C131.762 4.82058 131.965 4.33113 132.371 3.99868C132.795 3.66623 133.395 3.5 134.169 3.5C134.962 3.5 135.561 3.66623 135.967 3.99868C136.391 4.33113 136.603 4.82058 136.603 5.46702C136.603 6.07652 136.391 6.54749 135.967 6.87995C135.561 7.2124 134.962 7.37863 134.169 7.37863Z" fill="#111111"/>
<path fill-rule="evenodd" clip-rule="evenodd" d="M144.828 23.9736C145.511 24.3245 146.313 24.5 147.235 24.5C148.47 24.5 149.53 24.186 150.416 23.558C151.319 22.9301 152.011 22.0527 152.49 20.9261C152.97 19.781 153.209 18.4419 153.209 16.9089C153.209 15.339 152.961 13.9815 152.463 12.8364C151.983 11.6912 151.301 10.8047 150.416 10.1767C149.53 9.54879 148.48 9.2348 147.262 9.2348C146.377 9.2348 145.612 9.41951 144.966 9.7889C144.321 10.1398 143.786 10.657 143.362 11.3403C142.956 12.0052 142.634 12.7995 142.394 13.7229H141.786C141.896 13.1504 141.997 12.5963 142.09 12.0606C142.2 11.525 142.283 11.0079 142.339 10.5092C142.394 9.99206 142.422 9.51183 142.422 9.06856V4.30339H138.438V24.1121H141.73L141.758 19.901H142.283C142.449 20.8799 142.744 21.7111 143.169 22.3944C143.593 23.0778 144.146 23.6042 144.828 23.9736ZM147.539 20.7044C147.06 21.0554 146.488 21.2308 145.824 21.2308C145.234 21.2308 144.727 21.1016 144.303 20.843C143.879 20.5844 143.519 20.2519 143.224 19.8456C142.947 19.4208 142.744 18.9683 142.616 18.4881C142.486 17.9894 142.422 17.5277 142.422 17.1029V16.5765C142.422 16.2256 142.468 15.8562 142.56 15.4683C142.652 15.0804 142.8 14.711 143.003 14.3601C143.206 13.9907 143.445 13.6675 143.722 13.3905C143.999 13.095 144.321 12.8641 144.69 12.6979C145.059 12.5316 145.465 12.4485 145.907 12.4485C146.571 12.4485 147.133 12.6332 147.594 13.0026C148.055 13.372 148.406 13.8799 148.645 14.5264C148.904 15.1728 149.033 15.9393 149.033 16.8258C149.033 17.7124 148.904 18.4881 148.645 19.153C148.387 19.8179 148.018 20.3351 147.539 20.7044Z" fill="#111111"/>
<path fill-rule="evenodd" clip-rule="evenodd" d="M158.236 24.0013C159.176 24.3338 160.246 24.5 161.444 24.5C162.44 24.5 163.307 24.3892 164.044 24.1675C164.8 23.9644 165.446 23.6689 165.98 23.281C166.516 22.8747 166.939 22.4037 167.253 21.8681C167.585 21.314 167.834 20.6953 168 20.0119L164.542 19.2639C164.45 19.5409 164.33 19.8179 164.183 20.095C164.054 20.372 163.869 20.6214 163.629 20.843C163.408 21.0647 163.113 21.2493 162.744 21.3971C162.394 21.5264 161.961 21.591 161.444 21.591C160.319 21.591 159.406 21.2216 158.706 20.4828C158.122 19.8505 157.788 18.9138 157.703 17.6726L167.862 17.5739C167.935 16.2256 167.834 15.0343 167.557 14C167.299 12.9472 166.875 12.0607 166.285 11.3404C165.713 10.6201 164.994 10.0844 164.127 9.73348C163.261 9.36409 162.274 9.17941 161.168 9.17941C160.024 9.17941 159.001 9.37333 158.097 9.7612C157.194 10.1491 156.428 10.7032 155.801 11.4235C155.174 12.1253 154.695 12.9657 154.363 13.9446C154.049 14.905 153.892 15.9578 153.892 17.1029C153.892 18.2665 154.059 19.31 154.391 20.2335C154.741 21.157 155.239 21.9327 155.884 22.5607C156.53 23.1886 157.313 23.6689 158.236 24.0013ZM157.821 15.4837C157.894 15.1175 157.995 14.7799 158.125 14.4709C158.42 13.7506 158.835 13.2058 159.37 12.8364C159.904 12.467 160.522 12.2823 161.223 12.2823C161.813 12.2823 162.348 12.4301 162.827 12.7256C163.325 13.0211 163.703 13.4829 163.961 14.1108C164.116 14.4862 164.201 14.9244 164.217 15.4252L157.821 15.4837Z" fill="#111111"/>
<path d="M121.539 24.1121H125.55V17.4076C125.661 16.5211 125.873 15.7731 126.187 15.1636C126.518 14.5356 126.943 14.0554 127.459 13.7229C127.975 13.3905 128.593 13.2243 129.312 13.2243C129.57 13.2243 129.865 13.252 130.197 13.3074C130.529 13.3628 130.833 13.4551 131.11 13.5844L131.276 9.3456C131.018 9.2902 130.787 9.26252 130.585 9.26252C130.4 9.24404 130.225 9.2348 130.059 9.2348C129.1 9.2348 128.298 9.41952 127.653 9.78891C127.007 10.1583 126.5 10.7308 126.131 11.5066C125.781 12.2823 125.532 13.2889 125.384 14.5264H124.858L124.831 9.56727H121.539V24.1121Z" fill="#111111"/>
<path d="M113.977 24.5C112.723 24.5 111.625 24.3153 110.685 23.9459C109.744 23.5765 108.961 23.0594 108.334 22.3945C107.706 21.7296 107.236 20.9446 106.923 20.0396C106.609 19.1161 106.453 18.1095 106.453 17.0198C106.453 15.8747 106.609 14.8311 106.923 13.8892C107.255 12.9288 107.734 12.0976 108.362 11.3958C108.988 10.6939 109.763 10.1491 110.685 9.7612C111.607 9.37333 112.658 9.17941 113.838 9.17941C115.019 9.17941 116.042 9.37333 116.909 9.7612C117.794 10.1491 118.504 10.6939 119.038 11.3958C119.592 12.0791 119.97 12.8918 120.173 13.8338L116.494 15.0251C116.438 14.4525 116.282 13.963 116.023 13.5567C115.784 13.1319 115.452 12.8179 115.028 12.6148C114.622 12.3931 114.161 12.2823 113.644 12.2823C113.11 12.2823 112.649 12.3931 112.261 12.6148C111.874 12.8179 111.542 13.1227 111.266 13.529C111.008 13.9169 110.805 14.3971 110.657 14.9697C110.528 15.5237 110.464 16.1517 110.464 16.8536C110.464 17.8509 110.593 18.7005 110.851 19.4024C111.127 20.0858 111.524 20.6121 112.04 20.9815C112.575 21.3324 113.23 21.5079 114.004 21.5079C114.742 21.5079 115.332 21.3694 115.775 21.0923C116.217 20.7968 116.54 20.4274 116.742 19.9842C116.964 19.5224 117.102 19.0514 117.158 18.5712L120.643 19.347C120.551 20.0673 120.348 20.7414 120.034 21.3694C119.739 21.9973 119.315 22.5422 118.762 23.004C118.209 23.4657 117.535 23.8351 116.742 24.1121C115.968 24.3707 115.046 24.5 113.977 24.5Z" fill="#111111"/>
<path d="M96.6098 24.223C97.4028 24.4076 98.2881 24.5 99.2655 24.5C100.649 24.5 101.829 24.3153 102.806 23.9459C103.784 23.5765 104.53 23.0501 105.047 22.3667C105.563 21.6649 105.821 20.8338 105.821 19.8734C105.821 19.0607 105.655 18.3958 105.323 17.8786C104.991 17.3615 104.54 16.9459 103.968 16.6319C103.415 16.3179 102.788 16.0686 102.087 15.8839C101.386 15.6807 100.667 15.5053 99.9294 15.3575C99.2286 15.2098 98.6202 15.0712 98.1035 14.9419C97.5873 14.7942 97.1818 14.6095 96.8866 14.3879C96.6099 14.1662 96.4719 13.8799 96.4719 13.529C96.4719 13.1042 96.6837 12.7625 97.108 12.504C97.5504 12.2454 98.1681 12.1161 98.9611 12.1161C99.588 12.1161 100.132 12.1992 100.593 12.3654C101.072 12.5316 101.451 12.781 101.728 13.1135C102.022 13.4459 102.207 13.8338 102.281 14.277L105.517 13.1965C105.314 12.3654 104.917 11.6543 104.327 11.0633C103.756 10.4538 103.018 9.99207 102.115 9.67808C101.211 9.34565 100.16 9.17941 98.9611 9.17941C97.6335 9.17941 96.5088 9.37333 95.5866 9.7612C94.6645 10.1306 93.9638 10.6477 93.4845 11.3126C93.0048 11.9776 92.7653 12.7533 92.7653 13.6399C92.7653 14.4894 92.9494 15.1913 93.3184 15.7454C93.7055 16.281 94.1944 16.7151 94.7845 17.0475C95.3929 17.38 96.0475 17.6385 96.7482 17.8232C97.4674 18.0079 98.1681 18.1834 98.8504 18.3496C99.5515 18.4789 100.151 18.6174 100.649 18.7652C101.146 18.9129 101.525 19.0884 101.783 19.2915C102.041 19.4947 102.17 19.7718 102.17 20.1227C102.17 20.5844 101.939 20.9446 101.478 21.2032C101.018 21.4433 100.363 21.5633 99.5146 21.5633C98.7217 21.5633 98.0394 21.4617 97.4674 21.2586C96.9143 21.0369 96.4719 20.7507 96.1398 20.3997C95.8081 20.0488 95.6051 19.6702 95.5313 19.2639L92.4885 20.5105C92.5993 21.1201 92.8295 21.6742 93.18 22.1728C93.5306 22.653 93.9915 23.0686 94.563 23.4195C95.1346 23.7705 95.8173 24.0383 96.6098 24.223Z" fill="#111111"/>
<path fill-rule="evenodd" clip-rule="evenodd" d="M82.0616 24.5C81.2502 24.5 80.531 24.343 79.9036 24.029C79.2767 23.6966 78.7882 23.2256 78.4376 22.6161C78.0875 22.0066 77.9122 21.2493 77.9122 20.3443C77.9122 19.5501 78.0598 18.8852 78.3546 18.3496C78.6683 17.814 79.1199 17.38 79.7103 17.0475C80.3003 16.7151 81.0287 16.438 81.8955 16.2163C82.7623 15.9947 83.7486 15.8008 84.8552 15.6346C85.4453 15.5422 85.9246 15.4591 86.2936 15.3852C86.6806 15.2928 86.9666 15.1543 87.1511 14.9697C87.3352 14.7665 87.4275 14.4802 87.4275 14.1108C87.4275 13.5937 87.2434 13.1504 86.8744 12.781C86.5058 12.4116 85.9246 12.2269 85.1316 12.2269C84.5969 12.2269 84.0992 12.3192 83.6379 12.504C83.1955 12.6886 82.8084 12.9657 82.4763 13.3351C82.1626 13.7045 81.9324 14.1754 81.7848 14.748L78.272 13.6675C78.493 12.9103 78.8066 12.2546 79.2122 11.7005C79.6365 11.1464 80.1435 10.6847 80.7335 10.3153C81.3235 9.92743 81.997 9.64116 82.7531 9.45644C83.5092 9.27177 84.3294 9.17941 85.2146 9.17941C86.6345 9.17941 87.7873 9.41029 88.6725 9.87203C89.5762 10.3153 90.2493 11.0171 90.6917 11.9776C91.1341 12.9195 91.3555 14.1385 91.3555 15.6346V18.128C91.3555 18.7744 91.3647 19.4301 91.3832 20.095C91.4201 20.7599 91.457 21.434 91.4939 22.1174L91.6599 24.1121H88.1467C88.0733 23.6504 87.9995 23.124 87.9257 22.533C87.8703 21.9235 87.8242 21.314 87.7873 20.7045H87.2895C87.0312 21.4063 86.6622 22.0435 86.1829 22.6161C85.7036 23.1886 85.1131 23.6504 84.4124 24.0013C83.7301 24.3338 82.9464 24.5 82.0616 24.5ZM83.7486 21.6187C84.0992 21.6187 84.4493 21.5541 84.7999 21.4248C85.1685 21.2955 85.5191 21.1201 85.8508 20.8984C86.2013 20.6583 86.515 20.3628 86.7913 20.0119C87.0866 19.6609 87.326 19.2639 87.5105 18.8206L87.4673 16.9988C87.2983 17.0789 87.1189 17.1505 86.9297 17.2137C86.4873 17.343 86.026 17.4446 85.5467 17.5185C85.0855 17.5923 84.6246 17.6755 84.1637 17.7678C83.7025 17.8601 83.2877 17.9802 82.9187 18.128C82.5686 18.2757 82.2826 18.4789 82.0616 18.7375C81.8586 18.9775 81.7571 19.3193 81.7571 19.7625C81.7571 20.3351 81.9417 20.7876 82.3103 21.1201C82.6793 21.4525 83.1586 21.6187 83.7486 21.6187Z" fill="#111111"/>
<path d="M68.2644 24.1121H72.2754V17.4076C72.3861 16.5211 72.5983 15.7731 72.9115 15.1636C73.2437 14.5356 73.6676 14.0554 74.1838 13.7229C74.7005 13.3905 75.3181 13.2243 76.0373 13.2243C76.2956 13.2243 76.5904 13.252 76.9226 13.3074C77.2542 13.3628 77.5587 13.4551 77.8355 13.5844L78.0011 9.3456C77.7432 9.2902 77.5126 9.26252 77.3096 9.26252C77.1251 9.24404 76.9502 9.2348 76.7842 9.2348C75.8251 9.2348 75.0229 9.41952 74.3776 9.78891C73.7322 10.1583 73.2252 10.7308 72.8562 11.5066C72.506 12.2823 72.2569 13.2889 72.1093 14.5264H71.5839L71.5562 9.56727H68.2644V24.1121Z" fill="#111111"/>
<path fill-rule="evenodd" clip-rule="evenodd" d="M59.3747 24.5C57.9179 24.5 56.6364 24.2137 55.5302 23.6411C54.4235 23.0501 53.5568 22.1913 52.9298 21.0647C52.3029 19.9195 51.9893 18.4974 51.9893 16.7982C51.9893 15.0989 52.3029 13.686 52.9298 12.5594C53.5752 11.4327 54.4512 10.5923 55.5574 10.0382C56.6825 9.46568 57.9548 9.17941 59.3747 9.17941C60.8315 9.17941 62.1134 9.46568 63.2197 10.0382C64.3448 10.6108 65.2208 11.4696 65.8477 12.6148C66.4931 13.7414 66.8155 15.1543 66.8155 16.8536C66.8155 18.5712 66.4838 20.0026 65.82 21.1478C65.1746 22.2744 64.2894 23.1148 63.1643 23.6689C62.0581 24.223 60.7946 24.5 59.3747 24.5ZM59.5131 21.5356C60.2323 21.5356 60.8315 21.3694 61.3112 21.0369C61.809 20.7045 62.178 20.2058 62.4175 19.5409C62.6758 18.8575 62.8049 18.0356 62.8049 17.0752C62.8049 16.0593 62.6666 15.2005 62.3898 14.4987C62.1319 13.7784 61.7444 13.2335 61.2282 12.8641C60.712 12.4762 60.057 12.2823 59.2644 12.2823C58.5817 12.2823 57.9917 12.4485 57.494 12.781C56.9962 13.095 56.618 13.5937 56.3596 14.277C56.1017 14.9419 55.9726 15.7638 55.9726 16.7427C55.9726 18.3126 56.2858 19.5039 56.9132 20.3166C57.5401 21.1293 58.4069 21.5356 59.5131 21.5356Z" fill="#111111"/>
<path fill-rule="evenodd" clip-rule="evenodd" d="M41.4727 5.82714C43.6856 5.82714 45.4928 6.1873 46.8943 6.90761C48.2958 7.62793 49.3285 8.66221 49.9923 10.0105C50.6562 11.3403 50.9882 12.938 50.9882 14.8034C50.9882 16.2071 50.8222 17.4261 50.4903 18.4604C50.1583 19.4947 49.7065 20.372 49.1349 21.0923C48.5816 21.8126 47.9362 22.3944 47.1986 22.8377C46.4609 23.281 45.6772 23.6042 44.8474 23.8074C44.0175 24.0105 43.1785 24.1121 42.3302 24.1121H35V5.82714H41.4727ZM42.2196 20.8707H38.9832V9.06856H41.611C42.4962 9.06856 43.2615 9.1886 43.9069 9.42871C44.5707 9.66883 45.1148 10.029 45.5389 10.5092C45.9815 10.9894 46.3134 11.6081 46.5347 12.3654C46.756 13.1042 46.8666 13.9908 46.8666 15.025C46.8666 16.281 46.6914 17.343 46.3411 18.211C45.9907 19.0791 45.4743 19.744 44.792 20.2058C44.1098 20.649 43.2522 20.8707 42.2196 20.8707Z" fill="#111111"/>
</g>
<defs>
<clipPath id="clip0_343_6065">
<rect width="168" height="28" fill="white"/>
</clipPath>
</defs>
</svg>
