<svg width="196" height="28" viewBox="0 0 196 28" fill="none" xmlns="http://www.w3.org/2000/svg">
<path d="M1.53915 20.5V7.40909H6.70392C7.69682 7.40909 8.5427 7.59872 9.24157 7.97798C9.94043 8.35298 10.4731 8.875 10.8396 9.54403C11.2103 10.2088 11.3957 10.9759 11.3957 11.8452C11.3957 12.7145 11.2082 13.4815 10.8332 14.1463C10.4582 14.8111 9.91486 15.3288 9.20321 15.6996C8.49583 16.0703 7.63929 16.2557 6.63361 16.2557H3.34171V14.0376H6.18617C6.71884 14.0376 7.15776 13.946 7.50293 13.7628C7.85236 13.5753 8.11231 13.3175 8.28276 12.9893C8.45748 12.657 8.54483 12.2756 8.54483 11.8452C8.54483 11.4105 8.45748 11.0312 8.28276 10.7074C8.11231 10.3793 7.85236 10.1257 7.50293 9.94673C7.1535 9.76349 6.71032 9.67188 6.17338 9.67188H4.30691V20.5H1.53915ZM15.9612 7.40909V20.5H13.1934V7.40909H15.9612ZM18.2384 20.5V7.40909H23.4031C24.396 7.40909 25.2419 7.59872 25.9408 7.97798C26.6396 8.35298 27.1723 8.875 27.5388 9.54403C27.9095 10.2088 28.0949 10.9759 28.0949 11.8452C28.0949 12.7145 27.9074 13.4815 27.5324 14.1463C27.1574 14.8111 26.6141 15.3288 25.9024 15.6996C25.195 16.0703 24.3385 16.2557 23.3328 16.2557H20.0409V14.0376H22.8854C23.4181 14.0376 23.857 13.946 24.2021 13.7628C24.5516 13.5753 24.8115 13.3175 24.982 12.9893C25.1567 12.657 25.2441 12.2756 25.2441 11.8452C25.2441 11.4105 25.1567 11.0312 24.982 10.7074C24.8115 10.3793 24.5516 10.1257 24.2021 9.94673C23.8527 9.76349 23.4095 9.67188 22.8726 9.67188H21.0061V20.5H18.2384ZM29.8927 20.5V7.40909H38.7137V9.69105H32.6604V12.8104H38.2599V15.0923H32.6604V18.218H38.7393V20.5H29.8927ZM45.5548 20.5H40.9142V7.40909H45.5931C46.9099 7.40909 48.0434 7.67116 48.9937 8.19531C49.944 8.7152 50.6748 9.46307 51.1862 10.4389C51.7018 11.4148 51.9596 12.5824 51.9596 13.9418C51.9596 15.3054 51.7018 16.4773 51.1862 17.4574C50.6748 18.4375 49.9397 19.1896 48.9809 19.7138C48.0264 20.2379 46.8843 20.5 45.5548 20.5ZM43.6819 18.1286H45.4397C46.2579 18.1286 46.9461 17.9837 47.5044 17.6939C48.0669 17.3999 48.4887 16.946 48.77 16.3324C49.0555 15.7145 49.1982 14.9176 49.1982 13.9418C49.1982 12.9744 49.0555 12.1839 48.77 11.5703C48.4887 10.9567 48.069 10.505 47.5107 10.2152C46.9525 9.92543 46.2643 9.78054 45.4461 9.78054H43.6819V18.1286ZM55.528 20.5H52.5621L57.0812 7.40909H60.648L65.1608 20.5H62.1949L58.9157 10.4006H58.8135L55.528 20.5ZM55.3426 15.3544H62.3483V17.5149H55.3426V15.3544Z" fill="white"/>
<rect x="74" y="4" width="20" height="20" rx="10" fill="white"/>
<path d="M88 12L82.8536 17.1464C82.6583 17.3417 82.3417 17.3417 82.1464 17.1464L80 15" stroke="#00AAAA" stroke-width="1.67" stroke-linecap="round"/>
<path d="M112.773 12H111.364C111.28 11.5947 111.134 11.2386 110.926 10.9318C110.722 10.625 110.472 10.3674 110.176 10.1591C109.884 9.94697 109.561 9.78788 109.205 9.68182C108.848 9.57576 108.477 9.52273 108.091 9.52273C107.386 9.52273 106.748 9.70076 106.176 10.0568C105.608 10.4129 105.155 10.9375 104.818 11.6307C104.485 12.3239 104.318 13.1742 104.318 14.1818C104.318 15.1894 104.485 16.0398 104.818 16.733C105.155 17.4261 105.608 17.9508 106.176 18.3068C106.748 18.6629 107.386 18.8409 108.091 18.8409C108.477 18.8409 108.848 18.7879 109.205 18.6818C109.561 18.5758 109.884 18.4186 110.176 18.2102C110.472 17.9981 110.722 17.7386 110.926 17.4318C111.134 17.1212 111.28 16.7652 111.364 16.3636H112.773C112.667 16.9583 112.473 17.4905 112.193 17.9602C111.913 18.4299 111.564 18.8295 111.148 19.1591C110.731 19.4848 110.263 19.733 109.744 19.9034C109.229 20.0739 108.678 20.1591 108.091 20.1591C107.098 20.1591 106.216 19.9167 105.443 19.4318C104.67 18.947 104.063 18.2576 103.619 17.3636C103.176 16.4697 102.955 15.4091 102.955 14.1818C102.955 12.9545 103.176 11.8939 103.619 11C104.063 10.1061 104.67 9.41667 105.443 8.93182C106.216 8.44697 107.098 8.20455 108.091 8.20455C108.678 8.20455 109.229 8.28977 109.744 8.46023C110.263 8.63068 110.731 8.88068 111.148 9.21023C111.564 9.53598 111.913 9.93371 112.193 10.4034C112.473 10.8693 112.667 11.4015 112.773 12ZM124.768 14.1818C124.768 15.4091 124.546 16.4697 124.103 17.3636C123.66 18.2576 123.052 18.947 122.279 19.4318C121.507 19.9167 120.624 20.1591 119.632 20.1591C118.639 20.1591 117.757 19.9167 116.984 19.4318C116.211 18.947 115.603 18.2576 115.16 17.3636C114.717 16.4697 114.495 15.4091 114.495 14.1818C114.495 12.9545 114.717 11.8939 115.16 11C115.603 10.1061 116.211 9.41667 116.984 8.93182C117.757 8.44697 118.639 8.20455 119.632 8.20455C120.624 8.20455 121.507 8.44697 122.279 8.93182C123.052 9.41667 123.66 10.1061 124.103 11C124.546 11.8939 124.768 12.9545 124.768 14.1818ZM123.404 14.1818C123.404 13.1742 123.236 12.3239 122.899 11.6307C122.565 10.9375 122.113 10.4129 121.541 10.0568C120.972 9.70076 120.336 9.52273 119.632 9.52273C118.927 9.52273 118.289 9.70076 117.717 10.0568C117.149 10.4129 116.696 10.9375 116.359 11.6307C116.025 12.3239 115.859 13.1742 115.859 14.1818C115.859 15.1894 116.025 16.0398 116.359 16.733C116.696 17.4261 117.149 17.9508 117.717 18.3068C118.289 18.6629 118.927 18.8409 119.632 18.8409C120.336 18.8409 120.972 18.6629 121.541 18.3068C122.113 17.9508 122.565 17.4261 122.899 16.733C123.236 16.0398 123.404 15.1894 123.404 14.1818ZM127.037 8.36364H128.719L132.674 18.0227H132.81L136.764 8.36364H138.446V20H137.128V11.1591H137.014L133.378 20H132.105L128.469 11.1591H128.355V20H127.037V8.36364ZM141.172 20V8.36364H145.103C146.016 8.36364 146.763 8.52841 147.342 8.85795C147.925 9.18371 148.357 9.625 148.638 10.1818C148.918 10.7386 149.058 11.3598 149.058 12.0455C149.058 12.7311 148.918 13.3542 148.638 13.9148C148.361 14.4754 147.933 14.9223 147.353 15.2557C146.774 15.5852 146.031 15.75 145.126 15.75H142.308V14.5H145.081C145.706 14.5 146.208 14.392 146.586 14.1761C146.965 13.9602 147.24 13.6686 147.41 13.3011C147.584 12.9299 147.672 12.5114 147.672 12.0455C147.672 11.5795 147.584 11.1629 147.41 10.7955C147.24 10.428 146.963 10.1402 146.581 9.93182C146.198 9.7197 145.691 9.61364 145.058 9.61364H142.581V20H141.172ZM151.228 20V8.36364H152.637V18.75H158.046V20H151.228ZM161.537 8.36364V20H160.128V8.36364H161.537ZM164.739 20H163.262L167.535 8.36364H168.989L173.262 20H171.785L168.308 10.2045H168.217L164.739 20ZM165.285 15.4545H171.239V16.7045H165.285V15.4545ZM184.202 8.36364V20H182.838L176.497 10.8636H176.384V20H174.975V8.36364H176.338L182.702 17.5227H182.816V8.36364H184.202ZM186.285 9.61364V8.36364H195.012V9.61364H191.353V20H189.944V9.61364H186.285Z" fill="white"/>
</svg>
