<svg width="186" height="28" viewBox="0 0 186 28" fill="none" xmlns="http://www.w3.org/2000/svg">
<path d="M1.18857 20.5V7.40909H6.35334C7.34624 7.40909 8.19212 7.59872 8.89098 7.97798C9.58984 8.35298 10.1225 8.875 10.489 9.54403C10.8597 10.2088 11.0451 10.9759 11.0451 11.8452C11.0451 12.7145 10.8576 13.4815 10.4826 14.1463C10.1076 14.8111 9.56428 15.3288 8.85263 15.6996C8.14524 16.0703 7.28871 16.2557 6.28303 16.2557H2.99112V14.0376H5.83558C6.36825 14.0376 6.80717 13.946 7.15234 13.7628C7.50178 13.5753 7.76172 13.3175 7.93217 12.9893C8.10689 12.657 8.19425 12.2756 8.19425 11.8452C8.19425 11.4105 8.10689 11.0312 7.93217 10.7074C7.76172 10.3793 7.50178 10.1257 7.15234 9.94673C6.80291 9.76349 6.35973 9.67188 5.8228 9.67188H3.95632V20.5H1.18857ZM24.8727 13.9545C24.8727 15.3821 24.6021 16.5966 24.0609 17.598C23.524 18.5994 22.791 19.3643 21.862 19.8928C20.9373 20.4169 19.8976 20.679 18.7427 20.679C17.5794 20.679 16.5353 20.4148 15.6106 19.8864C14.6859 19.358 13.9551 18.593 13.4181 17.5916C12.8812 16.5902 12.6127 15.3778 12.6127 13.9545C12.6127 12.527 12.8812 11.3125 13.4181 10.3111C13.9551 9.30966 14.6859 8.54687 15.6106 8.02273C16.5353 7.49432 17.5794 7.23011 18.7427 7.23011C19.8976 7.23011 20.9373 7.49432 21.862 8.02273C22.791 8.54687 23.524 9.30966 24.0609 10.3111C24.6021 11.3125 24.8727 12.527 24.8727 13.9545ZM22.0666 13.9545C22.0666 13.0298 21.9281 12.25 21.6511 11.6151C21.3784 10.9801 20.9927 10.4986 20.4941 10.1705C19.9956 9.84233 19.4118 9.67827 18.7427 9.67827C18.0737 9.67827 17.4899 9.84233 16.9913 10.1705C16.4927 10.4986 16.1049 10.9801 15.8279 11.6151C15.5552 12.25 15.4189 13.0298 15.4189 13.9545C15.4189 14.8793 15.5552 15.6591 15.8279 16.294C16.1049 16.929 16.4927 17.4105 16.9913 17.7386C17.4899 18.0668 18.0737 18.2308 18.7427 18.2308C19.4118 18.2308 19.9956 18.0668 20.4941 17.7386C20.9927 17.4105 21.3784 16.929 21.6511 16.294C21.9281 15.6591 22.0666 14.8793 22.0666 13.9545ZM26.9229 20.5V7.40909H32.0877C33.0806 7.40909 33.9265 7.59872 34.6254 7.97798C35.3242 8.35298 35.8569 8.875 36.2234 9.54403C36.5941 10.2088 36.7795 10.9759 36.7795 11.8452C36.7795 12.7145 36.592 13.4815 36.217 14.1463C35.842 14.8111 35.2987 15.3288 34.587 15.6996C33.8796 16.0703 33.0231 16.2557 32.0174 16.2557H28.7255V14.0376H31.57C32.1026 14.0376 32.5415 13.946 32.8867 13.7628C33.2362 13.5753 33.4961 13.3175 33.6665 12.9893C33.8413 12.657 33.9286 12.2756 33.9286 11.8452C33.9286 11.4105 33.8413 11.0312 33.6665 10.7074C33.4961 10.3793 33.2362 10.1257 32.8867 9.94673C32.5373 9.76349 32.0941 9.67188 31.5572 9.67188H29.6907V20.5H26.9229ZM41.345 7.40909V20.5H38.5772V7.40909H41.345ZM45.8786 20.5H42.9126L47.4318 7.40909H50.9986L55.5114 20.5H52.5455L49.2663 10.4006H49.1641L45.8786 20.5ZM45.6932 15.3544H52.6989V17.5149H45.6932V15.3544Z" fill="white"/>
<rect x="64" y="2.5" width="20" height="20" rx="10" fill="white"/>
<path d="M78 10.5L72.8536 15.6464C72.6583 15.8417 72.3417 15.8417 72.1464 15.6464L70 13.5" stroke="#00AAAA" stroke-width="1.67" stroke-linecap="round"/>
<path d="M102.773 10.5H101.364C101.28 10.0947 101.134 9.73864 100.926 9.43182C100.722 9.125 100.472 8.86742 100.176 8.65909C99.8845 8.44697 99.5606 8.28788 99.2045 8.18182C98.8485 8.07576 98.4773 8.02273 98.0909 8.02273C97.3864 8.02273 96.7481 8.20076 96.1761 8.55682C95.608 8.91288 95.1553 9.4375 94.8182 10.1307C94.4848 10.8239 94.3182 11.6742 94.3182 12.6818C94.3182 13.6894 94.4848 14.5398 94.8182 15.233C95.1553 15.9261 95.608 16.4508 96.1761 16.8068C96.7481 17.1629 97.3864 17.3409 98.0909 17.3409C98.4773 17.3409 98.8485 17.2879 99.2045 17.1818C99.5606 17.0758 99.8845 16.9186 100.176 16.7102C100.472 16.4981 100.722 16.2386 100.926 15.9318C101.134 15.6212 101.28 15.2652 101.364 14.8636H102.773C102.667 15.4583 102.473 15.9905 102.193 16.4602C101.913 16.9299 101.564 17.3295 101.148 17.6591C100.731 17.9848 100.263 18.233 99.7443 18.4034C99.2292 18.5739 98.678 18.6591 98.0909 18.6591C97.0985 18.6591 96.2159 18.4167 95.4432 17.9318C94.6705 17.447 94.0625 16.7576 93.6193 15.8636C93.1761 14.9697 92.9545 13.9091 92.9545 12.6818C92.9545 11.4545 93.1761 10.3939 93.6193 9.5C94.0625 8.60606 94.6705 7.91667 95.4432 7.43182C96.2159 6.94697 97.0985 6.70455 98.0909 6.70455C98.678 6.70455 99.2292 6.78977 99.7443 6.96023C100.263 7.13068 100.731 7.38068 101.148 7.71023C101.564 8.03598 101.913 8.43371 102.193 8.90341C102.473 9.36932 102.667 9.90151 102.773 10.5ZM114.768 12.6818C114.768 13.9091 114.546 14.9697 114.103 15.8636C113.66 16.7576 113.052 17.447 112.279 17.9318C111.507 18.4167 110.624 18.6591 109.632 18.6591C108.639 18.6591 107.757 18.4167 106.984 17.9318C106.211 17.447 105.603 16.7576 105.16 15.8636C104.717 14.9697 104.495 13.9091 104.495 12.6818C104.495 11.4545 104.717 10.3939 105.16 9.5C105.603 8.60606 106.211 7.91667 106.984 7.43182C107.757 6.94697 108.639 6.70455 109.632 6.70455C110.624 6.70455 111.507 6.94697 112.279 7.43182C113.052 7.91667 113.66 8.60606 114.103 9.5C114.546 10.3939 114.768 11.4545 114.768 12.6818ZM113.404 12.6818C113.404 11.6742 113.236 10.8239 112.899 10.1307C112.565 9.4375 112.113 8.91288 111.541 8.55682C110.972 8.20076 110.336 8.02273 109.632 8.02273C108.927 8.02273 108.289 8.20076 107.717 8.55682C107.149 8.91288 106.696 9.4375 106.359 10.1307C106.025 10.8239 105.859 11.6742 105.859 12.6818C105.859 13.6894 106.025 14.5398 106.359 15.233C106.696 15.9261 107.149 16.4508 107.717 16.8068C108.289 17.1629 108.927 17.3409 109.632 17.3409C110.336 17.3409 110.972 17.1629 111.541 16.8068C112.113 16.4508 112.565 15.9261 112.899 15.233C113.236 14.5398 113.404 13.6894 113.404 12.6818ZM117.037 6.86364H118.719L122.674 16.5227H122.81L126.764 6.86364H128.446V18.5H127.128V9.65909H127.014L123.378 18.5H122.105L118.469 9.65909H118.355V18.5H117.037V6.86364ZM131.172 18.5V6.86364H135.103C136.016 6.86364 136.763 7.02841 137.342 7.35795C137.925 7.68371 138.357 8.125 138.638 8.68182C138.918 9.23864 139.058 9.85985 139.058 10.5455C139.058 11.2311 138.918 11.8542 138.638 12.4148C138.361 12.9754 137.933 13.4223 137.353 13.7557C136.774 14.0852 136.031 14.25 135.126 14.25H132.308V13H135.081C135.706 13 136.208 12.892 136.586 12.6761C136.965 12.4602 137.24 12.1686 137.41 11.8011C137.584 11.4299 137.672 11.0114 137.672 10.5455C137.672 10.0795 137.584 9.66288 137.41 9.29545C137.24 8.92803 136.963 8.64015 136.581 8.43182C136.198 8.2197 135.691 8.11364 135.058 8.11364H132.581V18.5H131.172ZM141.228 18.5V6.86364H142.637V17.25H148.046V18.5H141.228ZM151.537 6.86364V18.5H150.128V6.86364H151.537ZM154.739 18.5H153.262L157.535 6.86364H158.989L163.262 18.5H161.785L158.308 8.70455H158.217L154.739 18.5ZM155.285 13.9545H161.239V15.2045H155.285V13.9545ZM174.202 6.86364V18.5H172.838L166.497 9.36364H166.384V18.5H164.975V6.86364H166.338L172.702 16.0227H172.816V6.86364H174.202ZM176.285 8.11364V6.86364H185.012V8.11364H181.353V18.5H179.944V8.11364H176.285Z" fill="white"/>
</svg>
