<svg width="41" height="40" viewBox="0 0 41 40" fill="none" xmlns="http://www.w3.org/2000/svg">
<path d="M35.3333 7.5H5.33325C4.67021 7.5 4.03433 7.76339 3.56548 8.23223C3.09664 8.70107 2.83325 9.33696 2.83325 10V30C2.83325 30.663 3.09664 31.2989 3.56548 31.7678C4.03433 32.2366 4.67021 32.5 5.33325 32.5H35.3333C35.9963 32.5 36.6322 32.2366 37.101 31.7678C37.5699 31.2989 37.8333 30.663 37.8333 30V10C37.8333 9.33696 37.5699 8.70107 37.101 8.23223C36.6322 7.76339 35.9963 7.5 35.3333 7.5ZM9.08325 20H11.5833C11.9148 20 12.2327 20.1317 12.4671 20.3661C12.7016 20.6005 12.8333 20.9185 12.8333 21.25C12.8333 21.5815 12.7016 21.8995 12.4671 22.1339C12.2327 22.3683 11.9148 22.5 11.5833 22.5H9.08325C8.75173 22.5 8.43379 22.3683 8.19937 22.1339C7.96495 21.8995 7.83325 21.5815 7.83325 21.25C7.83325 20.9185 7.96495 20.6005 8.19937 20.3661C8.43379 20.1317 8.75173 20 9.08325 20ZM24.0833 27.5H9.08325C8.75173 27.5 8.43379 27.3683 8.19937 27.1339C7.96495 26.8995 7.83325 26.5815 7.83325 26.25C7.83325 25.9185 7.96495 25.6005 8.19937 25.3661C8.43379 25.1317 8.75173 25 9.08325 25H24.0833C24.4148 25 24.7327 25.1317 24.9671 25.3661C25.2016 25.6005 25.3333 25.9185 25.3333 26.25C25.3333 26.5815 25.2016 26.8995 24.9671 27.1339C24.7327 27.3683 24.4148 27.5 24.0833 27.5ZM31.5833 27.5H29.0833C28.7517 27.5 28.4338 27.3683 28.1994 27.1339C27.9649 26.8995 27.8333 26.5815 27.8333 26.25C27.8333 25.9185 27.9649 25.6005 28.1994 25.3661C28.4338 25.1317 28.7517 25 29.0833 25H31.5833C31.9148 25 32.2327 25.1317 32.4671 25.3661C32.7016 25.6005 32.8333 25.9185 32.8333 26.25C32.8333 26.5815 32.7016 26.8995 32.4671 27.1339C32.2327 27.3683 31.9148 27.5 31.5833 27.5ZM31.5833 22.5H16.5833C16.2517 22.5 15.9338 22.3683 15.6994 22.1339C15.4649 21.8995 15.3333 21.5815 15.3333 21.25C15.3333 20.9185 15.4649 20.6005 15.6994 20.3661C15.9338 20.1317 16.2517 20 16.5833 20H31.5833C31.9148 20 32.2327 20.1317 32.4671 20.3661C32.7016 20.6005 32.8333 20.9185 32.8333 21.25C32.8333 21.5815 32.7016 21.8995 32.4671 22.1339C32.2327 22.3683 31.9148 22.5 31.5833 22.5Z" fill="white"/>
</svg>
