<svg width="32" height="32" viewBox="0 0 32 32" fill="none" xmlns="http://www.w3.org/2000/svg">
<path d="M20.5588 24.4537C20.6572 24.6046 20.713 24.7793 20.7204 24.9593C20.7277 25.1392 20.6863 25.3179 20.6005 25.4763C20.5147 25.6346 20.3877 25.7669 20.233 25.8591C20.0782 25.9513 19.9014 26 19.7213 26H1.27881C1.09868 26 0.921898 25.9513 0.767146 25.8591C0.612394 25.7669 0.485415 25.6346 0.399626 25.4763C0.313838 25.3179 0.272424 25.1392 0.279761 24.9593C0.287098 24.7793 0.342912 24.6046 0.441309 24.4537C1.84894 22.287 3.91942 20.6335 6.34381 19.74C5.00356 18.8477 3.98602 17.5478 3.44168 16.0326C2.89734 14.5173 2.85509 12.867 3.32117 11.3259C3.78726 9.78471 4.73694 8.43445 6.02977 7.47478C7.32261 6.5151 8.88996 5.99695 10.5001 5.99695C12.1102 5.99695 13.6775 6.5151 14.9703 7.47478C16.2632 8.43445 17.2129 9.78471 17.6789 11.3259C18.145 12.867 18.1028 14.5173 17.5584 16.0326C17.0141 17.5478 15.9966 18.8477 14.6563 19.74C17.0807 20.6335 19.1512 22.287 20.5588 24.4537ZM31.5476 24.435C30.1396 22.2774 28.0737 20.631 25.6563 19.74C27.2385 18.6742 28.3552 17.0455 28.7789 15.1854C29.2026 13.3254 28.9016 11.3737 27.9371 9.72777C26.9726 8.08183 25.4171 6.86529 23.5872 6.32578C21.7574 5.78627 19.7907 5.96434 18.0876 6.82374C18.0224 6.85737 17.9655 6.9049 17.9208 6.96298C17.8761 7.02105 17.8447 7.08825 17.8288 7.15981C17.8129 7.23137 17.813 7.30554 17.829 7.37707C17.845 7.4486 17.8765 7.51574 17.9213 7.57374C19.1878 9.1535 19.9151 11.0973 19.9967 13.1204C20.0784 15.1435 19.5101 17.1396 18.3751 18.8162C18.3017 18.9258 18.2746 19.0599 18.2996 19.1894C18.3247 19.3189 18.3999 19.4332 18.5088 19.5075C19.9887 20.5403 21.2555 21.8488 22.2401 23.3612C22.6371 23.9693 22.7993 24.7011 22.6963 25.42C22.6847 25.4915 22.6888 25.5647 22.7083 25.6345C22.7278 25.7042 22.7622 25.7689 22.8091 25.8241C22.8561 25.8793 22.9145 25.9236 22.9803 25.9539C23.046 25.9843 23.1176 26 23.1901 26H30.7276C30.9478 26.0001 31.1618 25.9274 31.3365 25.7934C31.5112 25.6594 31.6368 25.4714 31.6938 25.2587C31.7286 25.1189 31.7335 24.9732 31.7083 24.8313C31.6831 24.6894 31.6284 24.5544 31.5476 24.435Z" fill="#364759"/>
</svg>
